<svg xmlns="http://www.w3.org/2000/svg" xmlns:xlink="http://www.w3.org/1999/xlink" version="1.1" id="Capa_1" x="0px" y="0px" width="24px" height="24px" viewBox="0 0 478.125 478.125" style="enable-background:new 0 0 478.125 478.125;" xml:space="preserve">
<g>
	<path d="M420.75,19.125h9.562V0H95.625C68.85,0,47.812,21.038,47.812,47.812V420.75c0,32.513,24.862,57.375,57.375,57.375h19.125    V76.5H95.625c-15.3,0-28.688-13.388-28.688-28.688s13.388-28.688,28.688-28.688H382.5c0,0-9.562,13.388-9.562,28.688    S382.5,76.5,382.5,76.5h-47.812V306l-57.375-57.375L219.938,306V76.5h-76.5v401.625h286.875V86.062V76.5h-9.562    c-15.3,0-28.688-13.388-28.688-28.688S405.45,19.125,420.75,19.125z" fill="#aaaaaa"/>
	<polygon points="315.562,260.1 315.562,76.5 239.062,76.5 239.062,260.1 277.312,221.85   " fill="#aaaaaa"/>
</g>
</svg>
