<svg xmlns="http://www.w3.org/2000/svg" xmlns:xlink="http://www.w3.org/1999/xlink" version="1.1" id="Capa_1" x="0px" y="0px" width="24px" height="24px" viewBox="0 0 592.875 592.875" style="enable-background:new 0 0 592.875 592.875;" xml:space="preserve">
<g>
	<path d="M420.75,133.875h95.625L401.625,0v114.75C401.625,126.225,411.188,133.875,420.75,133.875z" fill="#aaaaaa"/>
	<path d="M382.5,114.75V0H191.25C170.212,0,153,17.212,153,38.25c-21.038,0-38.25,17.212-38.25,38.25    c-21.038,0-38.25,17.212-38.25,38.25v439.875c0,21.037,17.212,38.25,38.25,38.25h286.875c21.037,0,38.25-17.213,38.25-38.25    c21.037,0,38.25-17.213,38.25-38.25c21.037,0,38.25-17.213,38.25-38.25V153H420.75C399.713,153,382.5,135.788,382.5,114.75z     M401.625,573.75H114.75c-9.562,0-19.125-7.65-19.125-19.125V114.75c0-9.562,7.65-19.125,19.125-19.125v420.75    c0,21.037,17.212,38.25,38.25,38.25h267.75C420.75,564.188,413.1,573.75,401.625,573.75z M439.875,535.5H153    c-9.562,0-19.125-7.65-19.125-19.125V76.5c0-9.562,7.65-19.125,19.125-19.125v420.75c0,21.037,17.212,38.25,38.25,38.25H459    C459,525.938,451.35,535.5,439.875,535.5z" fill="#aaaaaa"/>
</g>
</svg>
